<svg fill="none" height="32" viewBox="0 0 82 32" width="82" xmlns="http://www.w3.org/2000/svg"> <path clip-rule="evenodd" d="M72.7133 8.67852H71.5142C70.8747 8.68105 70.2621 8.93433 69.8098 9.38318C69.3576 9.83203 69.1024 10.4401 69.0999 11.0748V17.4091C69.1266 19.0896 69.818 20.6922 71.0247 21.8712C72.2315 23.0502 73.8569 23.711 75.5502 23.711C77.2435 23.711 78.8688 23.0502 80.0756 21.8712C81.2824 20.6922 81.9737 19.0896 82.0005 17.4091V8.67852H80.7917C80.1521 8.68105 79.5395 8.93433 79.0873 9.38318C78.6351 9.83203 78.3799 10.4401 78.3773 11.0748V17.4091C78.3597 18.1413 78.0543 18.8377 77.5263 19.3494C76.9984 19.861 76.2897 20.1475 75.5518 20.1475C74.8139 20.1475 74.1052 19.861 73.5772 19.3494C73.0492 18.8377 72.7438 18.1413 72.7262 17.4091V8.67852H72.7133ZM59.8482 11.7314C61.9261 11.7314 62.7454 13.3002 62.7454 15.2764C62.7454 17.2526 61.44 18.8102 59.3959 18.8102C57.4741 18.8102 56.4906 17.4475 56.4906 15.3147C56.4906 13.182 57.9827 11.7314 59.8482 11.7314ZM62.7454 21.542C62.7454 24.8377 60.1073 25.1413 58.1968 25.0023C56.7445 24.9273 55.3296 24.5188 54.0634 23.8089V25.0087C54.0634 27.2612 56.5759 28.2038 59.3573 28.2038C63.489 28.2038 66.3701 25.7212 66.3701 21.5084V15.6518C66.3701 15.5288 66.3701 15.4042 66.3701 15.2796C66.3701 11.3688 64.0411 8.13695 59.8482 8.13695C55.8243 8.13695 52.8659 11.3704 52.8659 15.3179C52.8659 19.2271 55.2529 22.4127 59.3959 22.4127C60.9829 22.4127 62.0227 21.9014 62.7454 21.1921V21.5452V21.542ZM41.4156 8.67852H40.2068C39.5671 8.68063 38.9543 8.93378 38.5019 9.38272C38.0496 9.83166 37.7946 10.44 37.7925 11.0748V17.4091C37.8192 19.0896 38.5106 20.6922 39.7173 21.8712C40.9241 23.0502 42.5495 23.711 44.2427 23.711C45.936 23.711 47.5614 23.0502 48.7682 21.8712C49.9749 20.6922 50.6663 19.0896 50.693 17.4091V8.67852H49.4843C48.8446 8.68063 48.2317 8.93378 47.7794 9.38272C47.3271 9.83166 47.0721 10.44 47.0699 11.0748V17.4091C47.0699 18.1534 46.7721 18.8671 46.2419 19.3933C45.7117 19.9196 44.9926 20.2152 44.2427 20.2152C43.4929 20.2152 42.7738 19.9196 42.2436 19.3933C41.7134 18.8671 41.4156 18.1534 41.4156 17.4091V8.67852ZM35.0723 8.67852H33.8635C33.224 8.68105 32.6114 8.93433 32.1592 9.38318C31.7069 9.83203 31.4518 10.4401 31.4492 11.0748V20.8646C31.4518 21.4994 31.7069 22.1074 32.1592 22.5563C32.6114 23.0052 33.224 23.2584 33.8635 23.261H35.0723V8.67533V8.67852ZM32.3473 3.7373H34.1726C34.4112 3.73773 34.64 3.83189 34.8089 3.99923C34.9778 4.16657 35.0731 4.39347 35.0739 4.63033V6.44036C35.0731 6.67737 34.9778 6.90443 34.809 7.07202C34.6401 7.23962 34.4114 7.33414 34.1726 7.33498H32.3522C32.1134 7.33414 31.8846 7.23962 31.7158 7.07202C31.5469 6.90443 31.4517 6.67737 31.4508 6.44036V4.62874C31.4521 4.39215 31.5476 4.16566 31.7164 3.99867C31.8853 3.83167 32.1138 3.73772 32.3522 3.7373H32.3473Z" fill="black" fill-rule="evenodd"></path> <path clip-rule="evenodd" d="M23.0195 18.8251C23.8678 18.7212 24.2219 18.4497 24.201 17.4815C24.1781 16.601 24.0953 15.723 23.9531 14.8536C23.4477 12.0323 22.1971 9.6184 20.2077 7.83394C18.0106 5.86576 14.9895 4.73469 11.1652 4.75227C10.0561 4.76373 8.95772 4.53588 7.94609 4.08449C6.92876 3.62176 6.02399 2.94661 5.29354 2.10513L4.09604 0.74881C3.67805 0.302599 3.10159 0.0352298 2.48858 0.00323978C1.87557 -0.0287502 1.27404 0.177145 0.811213 0.577391C0.348381 0.977637 0.0605248 1.54085 0.00850923 2.14795C-0.0435063 2.75504 0.144396 3.35841 0.532488 3.83048L1.73 5.1868C2.90676 6.53542 4.36123 7.61787 5.99531 8.36113C7.62576 9.0875 9.39586 9.45327 11.1829 9.43309C13.7582 9.42191 15.7041 10.1073 17.0352 11.3022C18.3229 12.4556 19.1051 14.1538 19.3659 16.2067C19.6379 18.3458 21.0124 19.0615 23.0195 18.8187V18.8251ZM2.72309 13.1186C4.73181 12.8758 6.10315 13.5979 6.37838 15.7306C6.63913 17.7835 7.42137 19.4817 8.70901 20.6351C10.0417 21.8301 11.9893 22.5154 14.5597 22.5042C16.3473 22.4839 18.118 22.8496 19.7489 23.5762C21.3831 24.3193 22.8376 25.4018 24.0143 26.7505L25.2118 28.1068C25.6248 28.5755 25.8333 29.1877 25.7915 29.8089C25.7497 30.4301 25.461 31.0094 24.9888 31.4194C24.5167 31.8293 23.8998 32.0363 23.274 31.9948C22.6481 31.9533 22.0644 31.6667 21.6514 31.1981L20.4539 29.8402C19.7231 28.9991 18.8185 28.324 17.8014 27.8608C16.7897 27.4094 15.6914 27.1816 14.5823 27.193C10.758 27.2106 7.73523 26.0748 5.5398 24.1098C3.54718 22.3269 2.303 19.913 1.79116 17.0901C1.649 16.2202 1.56618 15.3416 1.54329 14.4606C1.52236 13.4909 1.87646 13.2193 2.72309 13.117V13.1186ZM11.5998 13.4621H14.1445C14.4773 13.463 14.7963 13.5945 15.0318 13.8279C15.2674 14.0614 15.4003 14.3778 15.4015 14.7082V17.2355C15.4003 17.5659 15.2674 17.8823 15.0318 18.1158C14.7963 18.3493 14.4773 18.4808 14.1445 18.4816H11.5998C11.2669 18.4808 10.9479 18.3493 10.7124 18.1158C10.4769 17.8823 10.344 17.5659 10.3427 17.2355V14.7082C10.344 14.3778 10.4769 14.0614 10.7124 13.8279C10.9479 13.5945 11.2669 13.463 11.5998 13.4621Z" fill="black" fill-rule="evenodd"></path></svg>